<?xml version="1.0" encoding="UTF-8" standalone="no"?>
<!-- Created with Inkscape (http://www.inkscape.org/) -->

<svg
   width="1889.7638"
   height="1889.7638"
   viewBox="0 0 500 500"
   version="1.1"
   id="svg5"
   inkscape:version="1.1 (c68e22c387, 2021-05-23)"
   sodipodi:docname="logo.svg"
   xmlns:inkscape="http://www.inkscape.org/namespaces/inkscape"
   xmlns:sodipodi="http://sodipodi.sourceforge.net/DTD/sodipodi-0.dtd"
   xmlns:xlink="http://www.w3.org/1999/xlink"
   xmlns="http://www.w3.org/2000/svg"
   xmlns:svg="http://www.w3.org/2000/svg">
  <sodipodi:namedview
     id="namedview7"
     pagecolor="#ffffff"
     bordercolor="#666666"
     borderopacity="1.0"
     inkscape:pageshadow="2"
     inkscape:pageopacity="0.0"
     inkscape:pagecheckerboard="0"
     inkscape:document-units="mm"
     showgrid="false"
     inkscape:snap-global="true"
     showguides="true"
     inkscape:zoom="0.15055283"
     inkscape:cx="189.30232"
     inkscape:cy="1238.7678"
     inkscape:window-width="1366"
     inkscape:window-height="705"
     inkscape:window-x="-8"
     inkscape:window-y="-8"
     inkscape:window-maximized="1"
     inkscape:current-layer="g27700"
     inkscape:guide-bbox="true"
     inkscape:lockguides="false"
     width="500mm"
     units="px" />
  <defs
     id="defs2">
    <linearGradient
       id="linearGradient903"
       inkscape:swatch="solid">
      <stop
         style="stop-color:#ff0000;stop-opacity:1;"
         offset="0"
         id="stop901" />
    </linearGradient>
  </defs>
  <g
     inkscape:label="Layer 1"
     inkscape:groupmode="layer"
     id="layer1">
    <text
       xml:space="preserve"
       style="font-weight:300;font-size:50.8px;line-height:1.25;font-family:Montserrat;-inkscape-font-specification:'Montserrat Light';letter-spacing:0px;word-spacing:0px;stroke-width:0.264583"
       x="49.085773"
       y="198.82845"
       id="text25808"><tspan
         sodipodi:role="line"
         id="tspan25806"
         style="stroke-width:0.264583"
         x="49.085773"
         y="198.82845" /></text>
    <text
       xml:space="preserve"
       style="font-weight:500;font-size:4.93889px;line-height:1.25;font-family:OptimusPrinceps;-inkscape-font-specification:'OptimusPrinceps Medium';letter-spacing:0px;word-spacing:0px;stroke-width:0.264583"
       x="67.221001"
       y="261.41501"
       id="text42351"><tspan
         sodipodi:role="line"
         id="tspan42349"
         style="font-size:4.93889px;stroke-width:0.264583"
         x="67.221001"
         y="261.41501" /></text>
    <g
       id="g27700"
       transform="matrix(2.3518176,0,0,2.3518176,-274.82438,-102.52555)"
       inkscape:export-filename="D:\File Inkscape\KONSEP ESTATE.png"
       inkscape:export-xdpi="1000"
       inkscape:export-ydpi="1000">
      <rect
         style="fill:#fcecdd;fill-opacity:1;fill-rule:evenodd;stroke-width:0.890013"
         id="rect161811"
         height="49.604092"
         x="273.49786"
         y="121.1983"
         width="4.2520304"
         inkscape:export-filename="D:\File Inkscape\logoseafood.png"
         inkscape:export-xdpi="1000"
         inkscape:export-ydpi="1000" />
      <path
         id="path167666"
         style="fill:none;fill-rule:evenodd;stroke:#fcecdd;stroke-width:3.40162434;stroke-miterlimit:4;stroke-dasharray:none;stroke-opacity:1;stop-color:#000000"
         d="M 301.15728,155.91106 A 78.179783,78.179783 0 0 1 222.9775,234.09084 78.179783,78.179783 0 0 1 144.79771,155.91106 78.179783,78.179783 0 0 1 222.9775,77.731276 78.179783,78.179783 0 0 1 301.15728,155.91106 Z"
         inkscape:export-filename="D:\File Inkscape\logoseafood.png"
         inkscape:export-xdpi="1000"
         inkscape:export-ydpi="1000" />
      <rect
         style="fill:#fcecdd;fill-opacity:1;fill-rule:evenodd;stroke-width:0.73372"
         id="rect161707"
         height="33.714775"
         x="165.07422"
         y="138.67015"
         inkscape:export-filename="D:\File Inkscape\logoseafood.png"
         inkscape:export-xdpi="1000"
         inkscape:export-ydpi="1000"
         width="4.2520304" />
      <rect
         style="fill:#fcecdd;fill-opacity:1;fill-rule:evenodd;stroke-width:0.406571"
         id="rect161625"
         width="4.2520304"
         height="10.351467"
         x="169.24808"
         y="122.63374"
         inkscape:export-filename="D:\File Inkscape\logoseafood.png"
         inkscape:export-xdpi="1000"
         inkscape:export-ydpi="1000" />
      <path
         id="rect161118"
         style="fill:none;fill-rule:evenodd;stroke:#fcecdd;stroke-width:3.40162434;stroke-miterlimit:4;stroke-dasharray:none;stroke-opacity:1"
         d="m 238.35019,107.78054 -66.724,24.13721 -14.96043,5.41189 v 5.3175 l 81.93557,-29.64005 49.16703,11.98273 v -5.16506 z"
         inkscape:export-filename="D:\File Inkscape\logoseafood.png"
         inkscape:export-xdpi="1000"
         inkscape:export-ydpi="1000"
         sodipodi:nodetypes="cccccccc" />
      <path
         id="path161307"
         style="fill:none;fill-rule:evenodd;stroke:#fcecdd;stroke-width:3.40162434;stroke-miterlimit:4;stroke-dasharray:none;stroke-opacity:1"
         d="m 187.92018,111.87538 -31.25442,10.81174 v 5.30975 l 32.14997,-11.12128 h 24.39231 l 13.82242,-5.00021 z"
         inkscape:export-filename="D:\File Inkscape\logoseafood.png"
         inkscape:export-xdpi="1000"
         inkscape:export-ydpi="1000" />
      <rect
         style="fill:#fcecdd;fill-opacity:1;fill-rule:evenodd;stroke-width:0.264583"
         id="rect161917"
         width="9.5559273"
         height="15.926545"
         x="233.66223"
         y="154.81268"
         inkscape:export-filename="D:\File Inkscape\logoseafood.png"
         inkscape:export-xdpi="1000"
         inkscape:export-ydpi="1000" />
      <path
         style="fill:none;stroke:#fcecdd;stroke-width:3.40162434;stroke-linecap:butt;stroke-linejoin:miter;stroke-miterlimit:4;stroke-dasharray:none;stroke-opacity:1"
         d="m 146.40693,171.12797 c 0,0 55.26228,3.71227 60.31451,-2.47567 2.8558,-3.95418 -1.42789,-5.49191 -1.42789,-5.49191 0,0 9.66576,-1.64758 11.31334,2.85579 1.64757,4.50337 4.39353,5.38208 10.21495,5.27224 5.82143,-0.10984 25.71851,0.81299 28.46695,-1.0506 4.50794,-3.05663 -0.89755,-6.85776 -0.89755,-6.85776 0,0 9.72082,-2.32661 11.40111,3.50702 1.68028,5.83362 21.52966,4.59658 34.20061,3.70918"
         id="path164734"
         sodipodi:nodetypes="cccsssczc"
         inkscape:export-filename="D:\File Inkscape\logoseafood.png"
         inkscape:export-xdpi="1000"
         inkscape:export-ydpi="1000" />
      <path
         style="fill:none;stroke:#fcecdd;stroke-width:3.40162434;stroke-linecap:butt;stroke-linejoin:miter;stroke-miterlimit:4;stroke-dasharray:none;stroke-opacity:1"
         d="m 153.37859,191.63742 c 0,0 30.94252,3.58257 32.10279,-1.80829 0.38667,-2.1891 -7.05763,-6.15228 -7.05763,-6.15228 0,0 12.34152,-0.2832 18.08964,5.73178 5.74812,6.01498 26.19472,5.0298 28.96992,1.08735 0.77668,-1.39802 -2.67952,-4.89305 -2.67952,-4.89305 0,0 9.52414,-0.62845 14.32963,4.50471 4.80549,5.13316 56.07519,0.98059 56.07519,0.98059"
         id="path165524"
         sodipodi:nodetypes="ccczcczc"
         inkscape:export-filename="D:\File Inkscape\logoseafood.png"
         inkscape:export-xdpi="1000"
         inkscape:export-ydpi="1000" />
      <path
         style="fill:none;stroke:#fcecdd;stroke-width:3.40162434;stroke-linecap:butt;stroke-linejoin:miter;stroke-miterlimit:4;stroke-dasharray:none;stroke-opacity:1"
         d="m 167.08572,210.97868 c 7.69448,0 40.97287,0.70813 40.24273,-1.09653 -0.73014,-1.80466 -3.5727,-4.54354 -3.5727,-4.54354 0,0 11.45594,-0.15534 16.89265,5.43671 5.43672,5.59205 37.51852,4.77502 35.88233,0.77668 -1.63619,-3.99834 -8.34259,-6.26993 -8.34259,-6.26993 0,0 9.95192,-2.12742 16.73066,4.71658 4.29154,4.33285 12.24652,2.40793 12.24652,2.40793"
         id="path166198"
         sodipodi:nodetypes="czcszcsc"
         inkscape:export-filename="D:\File Inkscape\logoseafood.png"
         inkscape:export-xdpi="1000"
         inkscape:export-ydpi="1000" />
      <text
         xml:space="preserve"
         style="font-weight:500;font-size:31.8146px;line-height:1.25;font-family:OptimusPrinceps;-inkscape-font-specification:'OptimusPrinceps Medium';letter-spacing:0.264583px;word-spacing:0px;fill:#fcecdd;fill-opacity:1;stroke-width:0.1657"
         id="text4942"
         transform="rotate(2.3935693,234.84747,107.40774)"
         inkscape:export-filename="D:\File Inkscape\logoseafood.png"
         inkscape:export-xdpi="1000"
         inkscape:export-ydpi="1000"><textPath
           xlink:href="#path15794"
           id="textPath39736"
           style="font-style:normal;font-variant:normal;font-weight:bold;font-stretch:normal;font-family:Montserrat;-inkscape-font-specification:'Montserrat Bold'">SEAFOOD</textPath></text>
      <path
         id="path15794"
         style="fill:none;fill-rule:evenodd;stroke:none;stroke-width:2.18651;stroke-opacity:1;stop-color:#000000"
         d="m 151.30655,106.75019 a 91.073127,91.073127 0 0 1 127.71099,-16.68925 91.073127,91.073127 0 0 1 16.68924,127.71102 91.073127,91.073127 0 0 1 -127.711,16.68922 91.073127,91.073127 0 0 1 -16.68923,-127.71099 z"
         inkscape:export-filename="D:\File Inkscape\logoseafood.png"
         inkscape:export-xdpi="1000"
         inkscape:export-ydpi="1000" />
      <text
         xml:space="preserve"
         style="font-weight:500;font-size:16.9333px;line-height:1.25;font-family:OptimusPrinceps;-inkscape-font-specification:'OptimusPrinceps Medium';letter-spacing:1.32292px;word-spacing:0px;fill:#fcecdd;fill-opacity:1;stroke-width:0.264583"
         id="text44891"
         transform="rotate(14.936588,218.44215,149.83118)"
         inkscape:export-filename="D:\File Inkscape\logoseafood.png"
         inkscape:export-xdpi="1000"
         inkscape:export-ydpi="1000"><textPath
           xlink:href="#path51256"
           id="textPath51279"
           style="font-style:normal;font-variant:normal;font-weight:bold;font-stretch:normal;font-family:Montserrat;-inkscape-font-specification:'Montserrat Bold'">RESTAURANT</textPath></text>
      <path
         id="path51256"
         style="fill:none;fill-rule:evenodd;stroke:none;stroke-width:2.31157;stroke-opacity:1;stop-color:#000000"
         d="M 186.30738,244.93688 A 96.282361,96.282361 45 0 0 312.00331,192.58117 96.282361,96.282361 45 0 0 259.64759,66.885238 96.282361,96.282361 45 0 0 133.95169,119.24096 96.282361,96.282361 45 0 0 186.30738,244.93688 Z"
         inkscape:export-filename="D:\File Inkscape\logoseafood.png"
         inkscape:export-xdpi="1000"
         inkscape:export-ydpi="1000" />
      <path
         id="path59802"
         style="fill:none;fill-rule:evenodd;stroke:#fcecdd;stroke-width:3.40162434;stop-color:#000000;fill-opacity:1;stroke-opacity:1;stroke-miterlimit:4;stroke-dasharray:none"
         d="m 157.97358,219.52813 a 91.687096,91.687096 0 0 1 -27.91837,-74.0434 91.687096,91.687096 0 0 1 12.07255,-38.21809"
         inkscape:export-filename="D:\File Inkscape\logoseafood.png"
         inkscape:export-xdpi="1000"
         inkscape:export-ydpi="1000" />
      <path
         id="path71273"
         style="fill:none;fill-rule:evenodd;stroke:#fcecdd;stroke-width:3.40162;stroke-miterlimit:4;stroke-dasharray:none;stroke-opacity:1;stop-color:#000000"
         d="m 306.26079,113.79755 c 6.71462,11.73859 8.50765,18.83913 9.57346,32.32041 v 0 c 2.18585,27.6487 -8.26114,54.80089 -28.4158,73.85392"
         inkscape:export-filename="D:\File Inkscape\logoseafood.png"
         inkscape:export-xdpi="1000"
         inkscape:export-ydpi="1000"
         sodipodi:nodetypes="cssc" />
    </g>
  </g>
</svg>
